<?xml version="1.0" standalone="no"?>
<!DOCTYPE svg PUBLIC "-//W3C//DTD SVG 20010904//EN"
 "http://www.w3.org/TR/2001/REC-SVG-20010904/DTD/svg10.dtd">
<svg version="1.0" xmlns="http://www.w3.org/2000/svg"
 width="512.000000pt" height="512.000000pt" viewBox="0 0 512.000000 512.000000"
 preserveAspectRatio="xMidYMid meet">
<metadata>
Created by potrace 1.14, written by Peter Selinger 2001-2017
</metadata>
<g transform="translate(0.000000,512.000000) scale(0.100000,-0.100000)"
fill="#000000" stroke="none">
<path d="M1169 4956 c-73 -50 -69 14 -69 -1040 l0 -946 -388 0 c-288 0 -391
-3 -400 -12 -17 -17 -17 -379 0 -396 8 -8 63 -12 180 -12 l168 0 0 -1200 0
-1199 21 -11 c33 -18 277 -9 289 10 5 8 10 75 10 148 l0 132 428 1 c386 1 423
2 386 15 -45 16 -97 62 -122 108 -15 28 -17 114 -22 936 -3 501 -9 914 -14
925 -21 47 -62 89 -110 111 l-51 24 910 0 910 0 40 -23 c44 -25 80 -72 95
-126 6 -22 10 -302 10 -748 l0 -713 146 0 146 0 -4 -182 c-3 -172 -4 -185 -27
-221 -39 -64 -88 -89 -189 -97 -54 -4 47 -8 271 -9 l357 -1 0 -140 0 -140 26
-10 c34 -13 250 -13 275 0 19 10 19 35 19 1210 l0 1200 168 0 c117 0 172 4
180 12 17 17 17 394 0 404 -6 4 -186 6 -400 5 l-388 -2 0 335 0 336 -155 0
-155 0 0 -335 0 -335 -1150 0 -1150 0 0 660 0 660 500 0 500 0 0 -210 0 -210
148 -2 147 -2 -190 -6 -190 -5 -7 -150 c-4 -82 -5 -156 -3 -163 4 -10 58 -12
247 -10 l243 3 3 46 3 47 -86 3 c-96 4 -115 16 -115 71 0 51 30 68 120 68 l80
0 0 28 c0 44 -26 72 -66 72 l-34 0 0 210 0 210 500 0 500 0 0 -260 0 -260 155
0 155 0 0 553 c0 533 -1 553 -20 585 -60 98 -210 96 -267 -4 -19 -33 -23 -54
-23 -140 l0 -101 -77 -7 c-42 -3 -267 -6 -500 -6 l-423 0 0 108 c0 123 -14
162 -69 199 -66 44 -165 21 -206 -48 -16 -27 -21 -57 -24 -146 l-3 -113 -499
0 -499 0 0 113 c0 94 -3 117 -20 145 -45 73 -150 96 -221 48z"/>
<path d="M1977 2123 c-14 -13 -6 -53 12 -63 13 -6 211 -10 573 -10 596 0 594
0 586 51 l-3 24 -581 3 c-319 1 -584 -1 -587 -5z"/>
<path d="M1977 1723 c-14 -13 -6 -53 12 -63 13 -6 211 -10 573 -10 596 0 594
0 586 51 l-3 24 -581 3 c-319 1 -584 -1 -587 -5z"/>
<path d="M1977 1323 c-14 -13 -6 -53 12 -63 13 -6 211 -10 573 -10 596 0 594
0 586 51 l-3 24 -581 3 c-319 1 -584 -1 -587 -5z"/>
</g>
</svg>
